<?xml version="1.0" encoding="UTF-8"?>
<svg width="35px" height="19px" viewBox="0 0 35 19" version="1.1" xmlns="http://www.w3.org/2000/svg" xmlns:xlink="http://www.w3.org/1999/xlink">
    <!-- Generator: Sketch 41.2 (35397) - http://www.bohemiancoding.com/sketch -->
    <title>AU</title>
    <desc>Created with Sketch.</desc>
    <defs></defs>
    <g id="Page-1" stroke="none" stroke-width="1" fill="none" fill-rule="evenodd">
        <path d="M1.872,15.744 L7.104,0.288 L10.776,0.288 L15.816,15.744 L17.232,15.744 C17.2800002,15.9200009 17.3199998,16.107999 17.352,16.308 C17.3840002,16.508001 17.4,16.6959991 17.4,16.872 C17.4,17.0480009 17.3840002,17.235999 17.352,17.436 C17.3199998,17.636001 17.2800002,17.8239991 17.232,18 L10.896,18 C10.7519993,17.6479982 10.68,17.272002 10.68,16.872 C10.68,16.4879981 10.7519993,16.1120018 10.896,15.744 L12.528,15.744 L11.688,12.936 L5.784,12.936 L4.896,15.744 L6.552,15.744 C6.68000064,16.1280019 6.744,16.5039982 6.744,16.872 C6.744,17.2400018 6.68000064,17.6159981 6.552,18 L0.384,18 C0.25599936,17.6159981 0.192,17.2400018 0.192,16.872 C0.192,16.5039982 0.25599936,16.1280019 0.384,15.744 L1.872,15.744 Z M10.968,10.56 L8.832,3.408 L6.552,10.56 L10.968,10.56 Z M19.008,2.76 L17.448,2.76 C17.3199994,2.45599848 17.256,2.104002 17.256,1.704 C17.256,1.36799832 17.3199994,0.96800232 17.448,0.504 L23.76,0.504 C23.8880006,0.93600216 23.952,1.32799824 23.952,1.68 C23.952,2.06400192 23.8880006,2.42399832 23.76,2.76 L22.176,2.76 L22.176,12.048 C22.176,12.8800042 22.275999,13.5479975 22.476,14.052 C22.676001,14.5560025 22.9439983,14.9479986 23.28,15.228 C23.6160017,15.5080014 23.9999978,15.6959995 24.432,15.792 C24.8640022,15.8880005 25.3039978,15.936 25.752,15.936 C26.2000022,15.936 26.6399978,15.8880005 27.072,15.792 C27.5040022,15.6959995 27.8879983,15.5080014 28.224,15.228 C28.5600017,14.9479986 28.831999,14.5560025 29.04,14.052 C29.248001,13.5479975 29.352,12.8800042 29.352,12.048 L29.352,2.76 L27.84,2.76 C27.7599996,2.5999992 27.7040002,2.42400096 27.672,2.232 C27.6399998,2.03999904 27.624,1.85600088 27.624,1.68 C27.624,1.31199816 27.6959993,0.92000208 27.84,0.504 L34.056,0.504 C34.1040002,0.71200104 34.1439998,0.915999 34.176,1.116 C34.2080002,1.316001 34.224,1.50399912 34.224,1.68 C34.224,1.85600088 34.2080002,2.03999904 34.176,2.232 C34.1439998,2.42400096 34.1040002,2.5999992 34.056,2.76 L32.448,2.76 L32.448,12 C32.448,12.992005 32.3160013,13.883996 32.052,14.676 C31.7879987,15.468004 31.3800028,16.1399972 30.828,16.692 C30.2759972,17.2440028 29.5800042,17.6719985 28.74,17.976 C27.8999958,18.2800015 26.9040058,18.432 25.752,18.432 C24.5999942,18.432 23.6000042,18.2800015 22.752,17.976 C21.9039958,17.6719985 21.2040028,17.2440028 20.652,16.692 C20.0999972,16.1399972 19.6880014,15.468004 19.416,14.676 C19.1439986,13.883996 19.008,12.992005 19.008,12 L19.008,2.76 Z" id="AU" fill="#FAB700"></path>
    </g>
</svg>
