<?xml version="1.0" encoding="UTF-8"?>
<svg width="25px" height="33px" viewBox="0 0 25 33" version="1.1" xmlns="http://www.w3.org/2000/svg" xmlns:xlink="http://www.w3.org/1999/xlink">
    <!-- Generator: Sketch 41.2 (35397) - http://www.bohemiancoding.com/sketch -->
    <title>82</title>
    <desc>Created with Sketch.</desc>
    <defs></defs>
    <g id="Page-1" stroke="none" stroke-width="1" fill="none" fill-rule="evenodd">
        <path d="M22.6869844,33 C23.8244531,33 24.7494844,32.0770313 24.7494844,30.9375 L24.7494844,2.0625 C24.7494844,0.92296875 23.8244531,0 22.6869844,0 L9.28125,0 C8.43665625,0 7.38942187,0.433125 6.7918125,1.03125 L1.03176562,6.79078125 C0.433640625,7.38890625 0,8.435625 0,9.28125 L0,30.9375 C0,32.0770313 0.92503125,33 2.0625,33 L22.6869844,33 L22.6869844,33 Z M2.0625,30.9375 L22.6875,30.9375 L22.6869844,2.0625 L9.28125,2.0625 L9.28125,7.21875 C9.28125,8.35828125 8.35570312,9.28125 7.21875,9.28125 L2.0625,9.28125 L2.0625,30.9375 L2.0625,30.9375 Z M18.5625,26.8125 L6.1875,26.8125 C5.61773437,26.8125 5.15625,27.2765625 5.15625,27.84375 C5.15625,28.4160937 5.61773437,28.875 6.1875,28.875 L18.5625,28.875 C19.13175,28.875 19.59375,28.4160937 19.59375,27.84375 C19.59375,27.2765625 19.13175,26.8125 18.5625,26.8125 L18.5625,26.8125 Z M18.5625,21.65625 L6.1875,21.65625 C5.61773437,21.65625 5.15625,22.1203125 5.15625,22.6875 C5.15625,23.2598437 5.61773437,23.71875 6.1875,23.71875 L18.5625,23.71875 C19.13175,23.71875 19.59375,23.2598437 19.59375,22.6875 C19.59375,22.1203125 19.13175,21.65625 18.5625,21.65625 L18.5625,21.65625 Z M18.5625,16.5 L6.1875,16.5 C5.61773437,16.5 5.15625,16.9640625 5.15625,17.53125 C5.15625,18.1035937 5.61773437,18.5625 6.1875,18.5625 L18.5625,18.5625 C19.13175,18.5625 19.59375,18.1035937 19.59375,17.53125 C19.59375,16.9640625 19.13175,16.5 18.5625,16.5 L18.5625,16.5 Z M18.5625,11.34375 L6.1875,11.34375 C5.61773437,11.34375 5.15625,11.8078125 5.15625,12.375 C5.15625,12.9473437 5.61773437,13.40625 6.1875,13.40625 L18.5625,13.40625 C19.13175,13.40625 19.59375,12.9473437 19.59375,12.375 C19.59375,11.8078125 19.13175,11.34375 18.5625,11.34375 L18.5625,11.34375 Z M12.375,8.25 L18.5625,8.25 C19.13175,8.25 19.59375,7.79109375 19.59375,7.21875 C19.59375,6.6515625 19.13175,6.1875 18.5625,6.1875 L12.375,6.1875 C11.8052344,6.1875 11.34375,6.6515625 11.34375,7.21875 C11.34375,7.79109375 11.8052344,8.25 12.375,8.25 L12.375,8.25 Z M7.21875,3.52171875 L7.21875,7.21875 L3.5206875,7.21875 L7.21875,3.52171875 L7.21875,3.52171875 Z" id="82" fill="#FAB700"></path>
    </g>
</svg>