<?xml version="1.0" encoding="UTF-8"?>
<svg width="44px" height="34px" viewBox="0 0 44 34" version="1.1" xmlns="http://www.w3.org/2000/svg" xmlns:xlink="http://www.w3.org/1999/xlink">
    <!-- Generator: Sketch 41.2 (35397) - http://www.bohemiancoding.com/sketch -->
    <title>21</title>
    <desc>Created with Sketch.</desc>
    <defs></defs>
    <g id="Page-1" stroke="none" stroke-width="1" fill="none" fill-rule="evenodd">
        <path d="M0,2.11459988 L0,32.1352009 C0,32.8891445 0.611342497,33.4998047 1.36460379,33.4998047 L42.3020351,33.4998047 C43.0559787,33.4998047 43.6666389,32.8891445 43.6666389,32.1352009 L43.6666389,7.57301503 C43.6666389,6.81907144 43.0559787,6.20841124 42.3020351,6.20841124 L21.0340028,6.20841124 L15.9754165,1.1491427 C15.7195533,0.893279491 15.3722617,0.749996094 15.0106417,0.749996094 L1.36460379,0.749996094 C0.611342497,0.749996094 0,1.36065629 0,2.11459988 L0,2.11459988 Z M2.72920757,3.47920367 L14.4450134,3.47920367 L19.5042819,8.53778991 C19.7601451,8.79365312 20.1067545,8.93761882 20.4690568,8.93761882 L40.9374313,8.93761882 L40.9374313,30.7705971 L2.72920757,30.7705971 L2.72920757,3.47920367 L2.72920757,3.47920367 Z" id="21" fill="#FAB700"></path>
    </g>
</svg>