<?xml version="1.0" encoding="UTF-8"?>
<svg width="25px" height="33px" viewBox="0 0 25 33" version="1.1" xmlns="http://www.w3.org/2000/svg" xmlns:xlink="http://www.w3.org/1999/xlink">
    <!-- Generator: Sketch 41.2 (35397) - http://www.bohemiancoding.com/sketch -->
    <title>45</title>
    <desc>Created with Sketch.</desc>
    <defs></defs>
    <g id="Page-1" stroke="none" stroke-width="1" fill="none" fill-rule="evenodd">
        <path d="M18.6836719,3.09375 L17.4219375,0.57028125 C17.2471406,0.221203125 16.8898125,0 16.4994844,0 L8.24948437,0 C7.85915625,0 7.50182812,0.221203125 7.32703125,0.57028125 L6.06529687,3.09375 L1.03125,3.09375 C0.461484375,3.09375 0,3.55575 0,4.125 L0,31.96875 C0,32.5385156 0.461484375,33 1.03125,33 L23.7182344,33 C24.2874844,33 24.7494844,32.5385156 24.7494844,31.96875 L24.7494844,4.125 C24.7494844,3.55575 24.2874844,3.09375 23.7182344,3.09375 L18.6836719,3.09375 L18.6836719,3.09375 Z M6.18698437,26.8125 L5.15573437,26.8125 C4.58648437,26.8125 4.12448437,27.2745 4.12448437,27.84375 C4.12448437,28.4135156 4.58648437,28.875 5.15573437,28.875 L6.18698437,28.875 C6.75675,28.875 7.21823437,28.4135156 7.21823437,27.84375 C7.21823437,27.2745 6.75675,26.8125 6.18698437,26.8125 L6.18698437,26.8125 Z M19.5932344,26.8125 L10.3119844,26.8125 C9.74273437,26.8125 9.28073437,27.2745 9.28073437,27.84375 C9.28073437,28.4135156 9.74273437,28.875 10.3119844,28.875 L19.5932344,28.875 C20.163,28.875 20.6244844,28.4135156 20.6244844,27.84375 C20.6244844,27.2745 20.163,26.8125 19.5932344,26.8125 L19.5932344,26.8125 Z M19.5932344,21.65625 L10.3119844,21.65625 C9.74273437,21.65625 9.28073437,22.11825 9.28073437,22.6875 C9.28073437,23.2572656 9.74273437,23.71875 10.3119844,23.71875 L19.5932344,23.71875 C20.163,23.71875 20.6244844,23.2572656 20.6244844,22.6875 C20.6244844,22.11825 20.163,21.65625 19.5932344,21.65625 L19.5932344,21.65625 Z M6.18698437,21.65625 L5.15573437,21.65625 C4.58648437,21.65625 4.12448437,22.11825 4.12448437,22.6875 C4.12448437,23.2572656 4.58648437,23.71875 5.15573437,23.71875 L6.18698437,23.71875 C6.75675,23.71875 7.21823437,23.2572656 7.21823437,22.6875 C7.21823437,22.11825 6.75675,21.65625 6.18698437,21.65625 L6.18698437,21.65625 Z M6.18698437,16.5 L5.15573437,16.5 C4.58648437,16.5 4.12448437,16.962 4.12448437,17.53125 C4.12448437,18.1010156 4.58648437,18.5625 5.15573437,18.5625 L6.18698437,18.5625 C6.75675,18.5625 7.21823437,18.1010156 7.21823437,17.53125 C7.21823437,16.962 6.75675,16.5 6.18698437,16.5 L6.18698437,16.5 Z M19.5932344,16.5 L10.3119844,16.5 C9.74273437,16.5 9.28073437,16.962 9.28073437,17.53125 C9.28073437,18.1010156 9.74273437,18.5625 10.3119844,18.5625 L19.5932344,18.5625 C20.163,18.5625 20.6244844,18.1010156 20.6244844,17.53125 C20.6244844,16.962 20.163,16.5 19.5932344,16.5 L19.5932344,16.5 Z M19.5932344,11.34375 L10.3119844,11.34375 C9.74273437,11.34375 9.28073437,11.80575 9.28073437,12.375 C9.28073437,12.9447656 9.74273437,13.40625 10.3119844,13.40625 L19.5932344,13.40625 C20.163,13.40625 20.6244844,12.9447656 20.6244844,12.375 C20.6244844,11.80575 20.163,11.34375 19.5932344,11.34375 L19.5932344,11.34375 Z M6.18698437,11.34375 L5.15573437,11.34375 C4.58648437,11.34375 4.12448437,11.80575 4.12448437,12.375 C4.12448437,12.9447656 4.58648437,13.40625 5.15573437,13.40625 L6.18698437,13.40625 C6.75675,13.40625 7.21823437,12.9447656 7.21823437,12.375 C7.21823437,11.80575 6.75675,11.34375 6.18698437,11.34375 L6.18698437,11.34375 Z M22.6869844,30.9375 L2.06198437,30.9375 L2.06198437,5.15625 L5.03404687,5.15625 L4.23328125,6.75778125 C4.07395312,7.07746875 4.09096875,7.45696875 4.27865625,7.7611875 C4.46685938,8.06489062 4.79840625,8.25 5.15573437,8.25 L19.6035469,8.25 C20.1733125,8.25 20.6347969,7.78851563 20.6347969,7.21875 C20.6347969,7.00321875 20.5687969,6.80367188 20.455875,6.63815625 L19.7149219,5.15625 L22.6869844,5.15625 L22.6869844,30.9375 L22.6869844,30.9375 Z M8.88679688,2.0625 L15.8621719,2.0625 L17.9246719,6.1875 L6.82429688,6.1875 L8.88679688,2.0625 L8.88679688,2.0625 Z" id="45" fill="#FAB700"></path>
    </g>
</svg>