<?xml version="1.0" encoding="utf-8"?>
<!-- Generator: Adobe Illustrator 21.1.0, SVG Export Plug-In . SVG Version: 6.00 Build 0)  -->
<svg version="1.1" id="Layer_1" xmlns="http://www.w3.org/2000/svg" xmlns:xlink="http://www.w3.org/1999/xlink" x="0px" y="0px"
	 viewBox="0 0 100 100" style="enable-background:new 0 0 100 100;" xml:space="preserve">
<style type="text/css">
	.st0{fill:#FAB700;}
</style>
<title>intranety</title>
<path class="st0" d="M79.6,70.8c-0.9-0.1-1.9-0.4-2.7-0.8c-4.1,5.7-9.9,10-16.5,12.2c1.8-4.4,3.3-8.9,4.5-13.4
	c3.3-0.2,6.5-0.6,9.7-1.1c-0.7-1.2-1-2.5-0.9-3.9l0,0c-2.6,0.4-5.2,0.8-7.9,1c1.8-8.3,2.6-16.8,2.4-25.3c5,1.4,9.8,3.1,14.5,5.2
	c0.5,3,0.7,6,0.4,9c-0.2,1.6-0.4,3.2-0.8,4.7c2.6,0.9,4.4,3.4,4.3,6.2c7.8-20.4-2.5-43.3-23-51.1s-43.3,2.5-51.1,23
	c-6.9,18.1,0.3,38.5,17,48.2c-0.2-2.2,0.8-4.2,2.6-5.4c-6.8-4.1-11.9-10.5-14.5-18c4.4,1.8,8.9,3.3,13.4,4.5c0.3,4.4,0.9,8.7,1.7,13
	c1.1-0.6,2.4-0.9,3.7-0.8h0.2c-0.7-3.7-1.3-7.5-1.6-11.3c4.2,0.9,8.4,1.6,12.6,2c4.2,0.4,8.5,0.5,12.8,0.4c-1.4,5-3.1,9.8-5.2,14.5
	c-3,0.5-6,0.7-9,0.4c-1.3-0.1-2.7-0.3-4-0.7c0.4,2.1-0.3,4.3-1.8,5.7C58,93.2,76.1,85,84.5,69.2C83.1,70.4,81.3,71,79.6,70.8z
	 M81.5,39.7c-4.4-1.8-8.9-3.3-13.5-4.5c-0.3-4.7-1-9.4-1.9-14C73.3,25.2,78.8,31.8,81.5,39.7z M35,62.4c-0.3-7.3,0.2-14.6,1.6-21.8
	c-0.1,0-0.3,0-0.4,0c-1.2-0.1-2.4-0.6-3.4-1.4c-1.4,7.3-2,14.7-1.8,22.2c-5-1.4-9.8-3.1-14.5-5.2c-1.1-5.9-0.5-12,1.7-17.7
	c4.1-1,8.3-1.7,12.5-2.2c-0.3-0.9-0.5-1.9-0.4-2.8c0-0.4,0.1-0.8,0.2-1.2c-3.4,0.4-6.8,0.9-10.2,1.6c4.1-7.2,10.7-12.7,18.6-15.4
	c-1.3,3-2.4,6.1-3.3,9.2c1.4-0.3,2.8-0.1,4,0.5c1.2-3.7,2.6-7.4,4.2-11c5.9-1.1,12.1-0.5,17.7,1.7c1.2,5,2,10.1,2.4,15.2
	c-6.9-1.5-14-2.3-21.1-2.4c0.5,1.3,0.6,2.7,0.2,4c7.1,0.1,14.2,0.9,21.1,2.5c0.4,8.9-0.5,17.9-2.5,26.6C52.7,65.3,43.8,64.5,35,62.4
	z"/>
<path class="st0" d="M40.8,82.8c-0.5-1.7-1.9-2.9-3.6-3.3c-0.2-0.1-0.5-0.1-0.7-0.1c-2.7-0.3-5.2,1.8-5.4,4.5c0,0,0,0,0,0
	c0,0.5,0,1.1,0.1,1.6c2.4,1.3,5,2.3,7.6,3C40.7,87.2,41.5,84.9,40.8,82.8L40.8,82.8z"/>
<path class="st0" d="M81.9,59.7c-2.5-1-5.4,0.3-6.3,2.8c-0.1,0.3-0.2,0.6-0.3,0.9c0,0.2-0.1,0.3-0.1,0.5c-0.3,2.7,1.7,5.2,4.5,5.5
	c2.7,0.3,5.2-1.7,5.5-4.5C85.4,62.6,84,60.5,81.9,59.7z"/>
<path class="st0" d="M41.2,31.8c-0.8-1.5-2.3-2.5-3.9-2.6c-2.7-0.3-5.2,1.8-5.5,4.5c-0.3,2.7,1.8,5.2,4.5,5.5s5.2-1.8,5.5-4.5
	C41.9,33.6,41.7,32.7,41.2,31.8z"/>
</svg>
