<?xml version="1.0" encoding="utf-8"?>
<!-- Generator: Adobe Illustrator 21.1.0, SVG Export Plug-In . SVG Version: 6.00 Build 0)  -->
<svg version="1.1" id="Layer_1" xmlns="http://www.w3.org/2000/svg" xmlns:xlink="http://www.w3.org/1999/xlink" x="0px" y="0px"
	 viewBox="0 0 100 100" style="enable-background:new 0 0 100 100;" xml:space="preserve">
<style type="text/css">
	.st0{fill:#006AC6;}
	.st1{fill:#FAB700;}
</style>
<title>inversechangerequestb</title>
<rect class="st0" width="100" height="100"/>
<path class="st1" d="M58.3,45.7L47.6,56.5l-5.7-5.7c-1-1-2.6-1-3.5,0s-1,2.6,0,3.5l7.5,7.5c1,1,2.6,1,3.5,0c0,0,0,0,0,0l12.5-12.5
	c1-1,1-2.6,0-3.5S59.3,44.8,58.3,45.7L58.3,45.7z"/>
<path class="st1" d="M77.6,17.5H65.4l-3.1-6.1C61.9,10.5,61,10,60.1,10h-20c-0.9,0-1.8,0.5-2.2,1.4l-3.1,6.1H22.6
	c-1.4,0-2.5,1.1-2.5,2.5v67.5c0,1.4,1.1,2.5,2.5,2.5h55c1.4,0,2.5-1.1,2.5-2.5V20C80.1,18.6,79,17.5,77.6,17.5z M41.6,15h17l5,10
	H36.6L41.6,15z M75.1,85h-50V22.5h7.2l-1.9,3.9c-0.6,1.2-0.1,2.7,1.1,3.4c0.3,0.2,0.7,0.3,1.1,0.3h35c1.4,0,2.5-1.1,2.5-2.5
	c0-0.5-0.2-1-0.4-1.4l-1.8-3.6H75L75.1,85z"/>
</svg>
