<?xml version="1.0" encoding="utf-8"?>
<!-- Generator: Adobe Illustrator 21.1.0, SVG Export Plug-In . SVG Version: 6.00 Build 0)  -->
<svg version="1.1" id="Layer_1" xmlns="http://www.w3.org/2000/svg" xmlns:xlink="http://www.w3.org/1999/xlink" x="0px" y="0px"
	 viewBox="0 0 100 100" style="enable-background:new 0 0 100 100;" xml:space="preserve">
<style type="text/css">
	.st0{fill:#006AC6;}
	.st1{fill:#FAB700;}
	.st2{fill:#FFFFFF;}
</style>
<title>inversecommsb</title>
<rect class="st0" width="100" height="100"/>
<path class="st1" d="M86.7,27.9c0-4-2.4-6.4-6.4-6.4c-1.7,0-3.3,0-5.2,0c0.5-5,0.1-9.5-5.6-11.3h-6c-5.5,1.8-6.1,6.2-5.5,11.2H40.6
	c0.5-4.8,0.1-9.2-5.3-11.2h-6.3c-3.1,1.3-5.3,3.3-5.3,6.9c0,1.4,0,2.8,0,4.4h-4.9c-4.4,0-6.7,2.3-6.7,6.7c0,18.4,0,36.8,0,55.2
	c-0.2,3.5,2.5,6.5,6,6.7c0.2,0,0.4,0,0.6,0c20.5-0.1,41-0.1,61.5,0c3.4,0.1,6.3-2.6,6.4-6.1c0-0.1,0-0.3,0-0.4
	C86.7,65,86.7,46.4,86.7,27.9z M30.6,84.2H17.9V71.6h12.7V84.2z M30.6,68.5H17.9V54.3h12.6L30.6,68.5z M30.6,50.9H17.9V36.7h12.6
	L30.6,50.9z M32,31.5c-2.6,0-2.6-0.4-2.6-3.7v-4.2c0-2,0-4.1,0-6.1c0-1.2,0.5-1.8,1.7-1.7h1.3c2.7,0,2.7,0.1,2.7,3.8
	c0,3.3,0,6.7,0,10c0,1.3-0.5,1.9-1.8,1.9L32,31.5z M47.8,84.2H33.6V71.6h14.2V84.2z M47.8,68.5H33.6V54.3h14.2V68.5z M47.8,50.9
	H33.6V36.7h14.2C47.8,41.4,47.8,46.1,47.8,50.9z M80.9,36.6v14.3H68V36.6H80.9L80.9,36.6z M80.9,54.3v14.3H68V54.3L80.9,54.3
	L80.9,54.3z M50.8,36.7H65v14.2H50.8V36.7z M50.8,54.4H65v14.2H50.8V54.4z M65,84.2H50.8V71.6H65V84.2z M63.5,27.5
	c0-3.2,0-6.4,0-9.7c-0.1-0.6,0.1-1.1,0.5-1.6c0.4-0.4,1-0.6,1.6-0.5c3.9,0,3.9-0.1,3.9,3.9v3.9c0,2,0,4,0,6.1c0.1,0.5-0.1,1-0.4,1.4
	c-0.4,0.3-0.9,0.5-1.3,0.5C63.6,31.7,63.5,31.6,63.5,27.5z M80.9,84.2h-13V71.6h13V84.2z"/>
<path class="st2" d="M47.8,36.7v14.2C47.8,46.1,47.8,41.4,47.8,36.7L47.8,36.7L47.8,36.7z"/>
<path class="st2" d="M68,36.6L68,36.6v14.2l0,0V36.6z"/>
</svg>
