<?xml version="1.0" encoding="utf-8"?>
<!-- Generator: Adobe Illustrator 21.1.0, SVG Export Plug-In . SVG Version: 6.00 Build 0)  -->
<svg version="1.1" id="Layer_1" xmlns="http://www.w3.org/2000/svg" xmlns:xlink="http://www.w3.org/1999/xlink" x="0px" y="0px"
	 viewBox="0 0 100 100" style="enable-background:new 0 0 100 100;" xml:space="preserve">
<style type="text/css">
	.st0{fill:#006AC6;}
	.st1{fill:#FAB700;}
</style>
<title>inverseproductsb</title>
<rect class="st0" width="100" height="100"/>
<g>
	<path class="st1" d="M90,60.5c0-0.5-0.3-0.9-0.9-1.4c0.5-0.4,0.9-0.9,0.9-1.4c0-1.6-3.1-2.9-7.6-3.7V31.3c0-3.1-2.6-5.7-5.7-5.7
		h-8.1h-46h-7c-3.1,0-5.7,2.6-5.7,5.7v32.2c0,3.1,2.6,5.7,5.7,5.7h7h37.1c0.8,2.1,7.3,3.8,15,3.8c8.4,0,15.1-1.9,15.1-4.3
		c0-0.5-0.3-0.9-0.9-1.4c0.5-0.4,0.9-0.9,0.9-1.4s-0.3-0.9-0.9-1.4c0.5-0.4,0.9-0.9,0.9-1.4s-0.3-0.9-0.9-1.4
		C89.7,61.5,90,61,90,60.5z M87.9,60.5c-0.5,0.3-1.6,0.9-3.7,1.4c-2.6,0.6-5.9,1-9.3,1c-3.4,0-6.7-0.3-9.3-1
		c-2.1-0.5-3.2-1.1-3.7-1.4c0.1-0.1,0.3-0.2,0.5-0.3c2.7,1.1,7.3,1.9,12.5,1.9c5.2,0,9.8-0.7,12.5-1.9
		C87.6,60.3,87.8,60.5,87.9,60.5z M68.2,53.3c1.1-1,2.5-1.6,4-1.6c1.7,0,3.3,0.7,4.4,1.9c-0.6,0-1.2,0-1.8,0c-2.2,0-4.3,0.1-6.2,0.4
		C68.5,53.7,68.4,53.5,68.2,53.3z M84.2,56.4c2.1,0.5,3.2,1.1,3.7,1.4c-0.5,0.3-1.6,0.9-3.7,1.4c-2.6,0.6-5.9,1-9.3,1
		c-3.4,0-6.7-0.3-9.3-1c-2.1-0.5-3.2-1.1-3.7-1.4c0.5-0.3,1.6-0.9,3.7-1.4c2.6-0.6,5.9-1,9.3-1C78.3,55.5,81.6,55.8,84.2,56.4z
		 M15.7,65.9c-1.3,0-2.4-1.1-2.4-2.4V31.3c0-1.3,1.1-2.4,2.4-2.4h61.1c1.3,0,2.4,1.1,2.4,2.4v22.4c-0.2,0-0.4,0-0.7,0
		c-1.3-2.1-3.6-3.4-6.2-3.4c-1.9,0-3.6,0.8-5,2c-1.3-1.2-3-2-5-2c-4.1,0-7.3,3.3-7.3,7.3c0,3.4,2.3,6.3,5.5,7.1
		c-0.4,0.4-0.7,0.8-0.8,1.2H15.7z M87.9,68.7c-0.5,0.3-1.6,0.9-3.7,1.4c-2.6,0.6-5.9,1-9.3,1c-3.4,0-6.7-0.3-9.3-1
		c-2.1-0.5-3.2-1.1-3.7-1.4c0.1-0.1,0.3-0.2,0.5-0.3c2.7,1.1,7.3,1.9,12.5,1.9c5.2,0,9.8-0.7,12.5-1.9
		C87.6,68.5,87.8,68.6,87.9,68.7z M87.9,66c-0.5,0.3-1.6,0.9-3.7,1.4c-2.6,0.6-5.9,1-9.3,1c-3.4,0-6.7-0.3-9.3-1
		c-2.1-0.5-3.2-1.1-3.7-1.4c0.1-0.1,0.3-0.2,0.5-0.3c2.7,1.1,7.3,1.9,12.5,1.9c5.2,0,9.8-0.7,12.5-1.9C87.6,65.8,87.8,65.9,87.9,66z
		 M87.9,63.3c-0.5,0.3-1.6,0.9-3.7,1.4c-2.6,0.6-5.9,1-9.3,1c-3.4,0-6.7-0.3-9.3-1c-2.1-0.5-3.2-1.1-3.7-1.4
		c0.1-0.1,0.3-0.2,0.5-0.3c2.7,1.1,7.3,1.9,12.5,1.9c5.2,0,9.8-0.7,12.5-1.9C87.6,63.1,87.8,63.2,87.9,63.3z"/>
	<rect x="16.4" y="59" class="st1" width="36" height="2.8"/>
</g>
</svg>
