<?xml version="1.0" encoding="utf-8"?>
<!-- Generator: Adobe Illustrator 21.1.0, SVG Export Plug-In . SVG Version: 6.00 Build 0)  -->
<svg version="1.1" id="Layer_1" xmlns="http://www.w3.org/2000/svg" xmlns:xlink="http://www.w3.org/1999/xlink" x="0px" y="0px"
	 viewBox="0 0 100 100" style="enable-background:new 0 0 100 100;" xml:space="preserve">
<style type="text/css">
	.st0{fill:#006AC6;}
	.st1{fill:#FAB700;}
</style>
<title>inversethreatb</title>
<rect class="st0" width="100" height="100"/>
<g id="Group">
	<path id="Shape" class="st1" d="M50.1,90C28,90,10.1,72.1,10.1,50.1S28,10.1,50.1,10.1C72.1,10.1,90,28,90,50
		C90,72.1,72.1,90,50.1,90z M50.1,17.4c-18,0-32.7,14.6-32.7,32.7c0,18,14.6,32.7,32.7,32.7s32.7-14.6,32.7-32.7c0,0,0,0,0-0.1
		C82.7,32,68.1,17.4,50.1,17.4L50.1,17.4z"/>
	<path id="Shape-2" class="st1" d="M46.8,53.7l-1.1-17c-0.2-3.3-0.3-5.7-0.3-7.1c-0.1-1.7,0.4-3.3,1.5-4.6c1.1-1.1,2.6-1.7,4.1-1.6
		c2,0,3.4,0.7,4.1,2.1c0.8,1.9,1.1,4,1,6.1c0,1.6-0.1,3.2-0.2,4.8l-1.5,17.5c-0.1,1.6-0.4,3.3-1.1,4.8c-0.5,1.1-1.5,1.7-2.7,1.7
		c-1.1,0.1-2.2-0.6-2.7-1.6C47.3,57.1,46.9,55.4,46.8,53.7L46.8,53.7z M50.8,77.1c-1.4,0-2.7-0.5-3.8-1.4c-1.1-1-1.7-2.4-1.6-3.9
		c0-2.9,2.3-5.3,5.2-5.3c0,0,0.1,0,0.1,0c1.4,0,2.8,0.5,3.8,1.5c1,1,1.6,2.3,1.6,3.7c0.1,1.5-0.5,2.9-1.6,3.9
		C53.5,76.6,52.1,77.1,50.8,77.1L50.8,77.1z"/>
</g>
</svg>
