<?xml version="1.0" encoding="UTF-8"?>
<svg width="37px" height="37px" viewBox="0 0 37 37" version="1.1" xmlns="http://www.w3.org/2000/svg" xmlns:xlink="http://www.w3.org/1999/xlink">
    <!-- Generator: Sketch 41.2 (35397) - http://www.bohemiancoding.com/sketch -->
    <title>18</title>
    <desc>Created with Sketch.</desc>
    <defs></defs>
    <g id="Page-1" stroke="none" stroke-width="1" fill="none" fill-rule="evenodd">
        <path d="M18.4999609,0 C13.5570026,0 8.90888744,1.92515219 5.41701981,5.41933231 C1.92515219,8.91351243 0,13.558737 0,18.4999609 C0,23.441763 1.92515219,28.0869876 5.41701981,31.5805896 C8.90888744,35.0753478 13.5570026,37.0005 18.4999609,37.0005 C23.437138,37.0005 28.0852532,35.0753478 31.5771208,31.5811677 C35.0747697,28.0869876 36.9999219,23.441763 36.9999219,18.4999609 C36.9999219,13.558737 35.0747697,8.91351243 31.5771208,5.41991043 C28.0852532,1.92515219 23.437138,0 18.4999609,0 L18.4999609,0 Z M29.9468118,29.9456555 C26.888537,33.0039303 22.8243268,34.6880049 18.4999609,34.6880049 C14.1755951,34.6880049 10.1113849,33.0039303 7.05311011,29.9456555 C3.99483532,26.888537 2.31249512,22.8237487 2.31249512,18.4999609 C2.31249512,14.1767513 3.99483532,10.111963 7.05311011,7.05484448 C10.1113849,3.99656969 14.1755951,2.31249512 18.4999609,2.31249512 C22.8243268,2.31249512 26.888537,3.99656969 29.9468118,7.05484448 C32.9993053,10.111963 34.6874268,14.1767513 34.6874268,18.4999609 C34.6874268,22.8237487 32.9993053,26.888537 29.9468118,29.9456555 L29.9468118,29.9456555 Z M24.1944802,18.0709931 L19.5694899,6.50851751 C19.3960528,6.06914344 18.9682412,5.78181592 18.4999609,5.78181592 C18.0258994,5.78181592 17.5980878,6.06914344 17.4246507,6.50851751 L12.7996605,18.0709931 C12.689817,18.3496488 12.6955982,18.6554762 12.7996605,18.9283507 L12.7996605,18.9295069 L17.4246507,30.4919825 C17.5980878,30.9313566 18.0258994,31.2186841 18.4999609,31.2186841 C18.9682412,31.2186841 19.3960528,30.9313566 19.5694899,30.4919825 L24.1944802,18.9295069 L24.1944802,18.9283507 C24.3043237,18.6554762 24.3101049,18.3496488 24.1944802,18.0709931 L24.1944802,18.0709931 Z M18.4999609,26.94924 L15.5804359,19.6562085 L21.4137048,19.6562085 L18.4999609,26.94924 L18.4999609,26.94924 Z M18.4999609,10.05126 L21.4137048,17.3437134 L15.5804359,17.3437134 L18.4999609,10.05126 L18.4999609,10.05126 Z" id="18" fill="#FAB700"></path>
    </g>
</svg>