<?xml version="1.0" encoding="UTF-8"?>
<svg width="155px" height="33px" viewBox="0 0 155 33" version="1.1" xmlns="http://www.w3.org/2000/svg" xmlns:xlink="http://www.w3.org/1999/xlink">
    <!-- Generator: Sketch 41.2 (35397) - http://www.bohemiancoding.com/sketch -->
    <title>mercado-logo</title>
    <desc>Created with Sketch.</desc>
    <defs></defs>
    <g id="Page-1" stroke="none" stroke-width="1" fill="none" fill-rule="evenodd">
        <g id="Desktop-Landscape" transform="translate(-10.000000, -14.000000)" fill="#FFFFFF">
            <g id="mercado-logo" transform="translate(10.000000, 14.000000)">
                <path d="M5.77497671,27.2248126 L5.77497671,0 L0,0 L0,32.9997447 L33,32.9997447 L33,27.2248126 L5.77497671,27.2248126 L5.77497671,27.2248126 Z M30.1124534,9.07485993 C28.5177982,9.07485993 27.2250233,10.3676596 27.2250233,11.9624424 C27.2250233,13.5571087 28.5177982,14.8499084 30.1124534,14.8499084 C31.7072251,14.8499084 33,13.5571087 33,11.9624424 C33,10.3676596 31.7072251,9.07485993 30.1124534,9.07485993 L30.1124534,9.07485993 Z M30.1124534,0 C28.5177982,0 27.2250233,1.29268325 27.2250233,2.88746602 C27.2250233,4.48213237 28.5177982,5.77493203 30.1124534,5.77493203 C31.7072251,5.77493203 33,4.48213237 33,2.88746602 C33,1.29268325 31.7072251,0 30.1124534,0 L30.1124534,0 Z M30.1124534,18.1498363 C28.5177982,18.1498363 27.2250233,19.4426359 27.2250233,21.0373023 C27.2250233,22.6320851 28.5177982,23.9247683 30.1124534,23.9247683 C31.7072251,23.9247683 33,22.6320851 33,21.0373023 C33,19.4426359 31.7072251,18.1498363 30.1124534,18.1498363 L30.1124534,18.1498363 Z M23.9249534,2.88746602 C23.9249534,1.29268325 22.6321786,0 21.0375233,0 C19.4427516,0 18.1499767,1.29268325 18.1499767,2.88746602 C18.1499767,4.48213237 19.4427516,5.77493203 21.0375233,5.77493203 C22.6321786,5.77493203 23.9249534,4.48213237 23.9249534,2.88746602 L23.9249534,2.88746602 Z M11.9624767,5.77493203 C10.3678214,5.77493203 9.07504659,4.48213237 9.07504659,2.88746602 C9.07504659,1.29268325 10.3678214,0 11.9624767,0 C13.5572484,0 14.8500233,1.29268325 14.8500233,2.88746602 C14.8500233,4.48213237 13.5572484,5.77493203 11.9624767,5.77493203 L11.9624767,5.77493203 Z" id="Fill-2"></path>
                <text id="Mercado" font-family="LexiaTrial-Bold, Lexia Trial" font-size="24" font-weight="bold">
                    <tspan x="57" y="27">Mercado</tspan>
                </text>
            </g>
        </g>
    </g>
</svg>