<?xml version="1.0" encoding="utf-8"?>
<!-- Generator: Adobe Illustrator 21.1.0, SVG Export Plug-In . SVG Version: 6.00 Build 0)  -->
<svg version="1.1" id="Layer_1" xmlns="http://www.w3.org/2000/svg" xmlns:xlink="http://www.w3.org/1999/xlink" x="0px" y="0px"
	 viewBox="0 0 100 100" style="enable-background:new 0 0 100 100;" xml:space="preserve">
<style type="text/css">
	.st0{fill:#FAB700;}
</style>
<title>phonebooky</title>
<path class="st0" d="M85.4,19.5h-3.9V24h3.9v61.4l-7.7-13.8c-0.8-1.4-2.3-2.3-4-2.3H31l-2.4,4.3c0.4,0.1,0.9,0.2,1.4,0.2h43.8
	l7.7,13.8c0.8,1.4,2.3,2.3,3.9,2.3c0.4,0,0.8-0.1,1.2-0.2c2-0.5,3.4-2.3,3.4-4.4V24C90,21.5,88,19.5,85.4,19.5"/>
<path class="st0" d="M14.7,80.5c-0.4,0-0.8-0.1-1.2-0.2c-2-0.5-3.4-2.3-3.4-4.4V14.5c0-2.5,2-4.5,4.6-4.5h57.5c2.5,0,4.5,2,4.6,4.5
	v45.3c0,2.5-2.1,4.5-4.6,4.5H26.3l-7.7,13.8C17.8,79.6,16.3,80.5,14.7,80.5 M14.7,14.5v61.4l7.7-13.8c0.8-1.4,2.3-2.3,4-2.3h45.8
	V14.5L14.7,14.5z"/>
<path class="st0" d="M28.6,28.8c0-1.5,0.4-2.9,1.2-4.2c0.5-1.2,1.3-2.1,2.4-2.8c0.5-0.2,1-0.4,1.6-0.5c0.5-0.1,1.1-0.2,1.6-0.2
	c0.2,0,0.3,0,0.5,0.1c0.3,0.1,0.7,0.7,1.2,1.7c0.2,0.3,0.4,0.7,0.7,1.2l0.8,1.5c0.2,0.4,0.5,0.8,0.7,1.2l0.4,0.6
	c0.2,0.3,0.3,0.5,0.5,0.8c0.1,0.2,0.2,0.4,0.2,0.6c-0.1,0.5-0.3,0.9-0.7,1.2c-0.4,0.5-0.9,0.9-1.4,1.2c-0.5,0.4-1,0.8-1.4,1.2
	c-0.3,0.2-0.6,0.6-0.7,1c0,0.2,0,0.3,0.1,0.5c0.1,0.2,0.1,0.3,0.2,0.5c0.1,0.1,0.2,0.3,0.3,0.5l0.3,0.4c1.1,2,2.4,3.8,4,5.3
	c1.6,1.6,3.4,2.9,5.3,4l0.4,0.3l0.5,0.3l0.5,0.2c0.2,0.1,0.3,0.1,0.5,0.1c0.4-0.1,0.8-0.3,1-0.7c0.4-0.4,0.8-0.9,1.2-1.4
	c0.4-0.5,0.8-1,1.2-1.4c0.3-0.4,0.7-0.6,1.2-0.7c0.2,0,0.4,0.1,0.7,0.2c0.3,0.1,0.6,0.3,0.8,0.5l0.6,0.4l1.2,0.7l1.5,0.8l1.2,0.7
	c1.1,0.5,1.6,0.9,1.7,1.2c0.1,0.2,0.1,0.3,0.1,0.5c0,0.5-0.1,1-0.3,1.5c-0.1,0.5-0.2,1.1-0.4,1.6c-0.7,1.1-1.6,1.9-2.8,2.4
	c-1.6,1-3.6,1.3-5.4,1.1c-0.4-0.1-0.9-0.2-1.3-0.3c-0.5-0.1-0.8-0.2-1.1-0.3L48.1,52L47,51.6c-1.4-0.5-2.7-1.1-4-1.9
	c-2.2-1.4-4.2-3-6-4.9c-1.9-1.8-3.5-3.8-4.9-6c-0.8-1.3-1.4-2.6-1.9-4c0-0.1-0.2-0.5-0.4-1.1s-0.4-1-0.5-1.3
	c-0.1-0.2-0.2-0.6-0.3-1.1c-0.1-0.4-0.2-0.9-0.3-1.4C28.6,29.6,28.6,29.2,28.6,28.8z"/>
</svg>
