<svg id="Layer_1" data-name="Layer 1" xmlns="http://www.w3.org/2000/svg" viewBox="0 0 100 100"><defs><style>.cls-1{fill:#fff;}.cls-2{fill:#006ac6;}</style></defs><title>pnpsb</title><rect class="cls-1" width="100" height="100"/><path class="cls-2" d="M80.58,20.1V85H28.2a7.5,7.5,0,1,1,0-15h1.28a11.3,11.3,0,0,0,1.27.08Q38.83,70,46.95,70h5.72q8.06,0,16.12.07A10.16,10.16,0,0,0,70,70c3.18-.4,5.45-2.49,5.44-5.33q-.05-24.65,0-49.3c0-2.8-1.75-4.51-4.91-5.37H24.29a25.1,25.1,0,0,0-4.12,1.68,9.45,9.45,0,0,0-4.61,8.36Q15.5,50,15.56,80a9.84,9.84,0,0,0,8.17,9.79,3.5,3.5,0,0,1,.55.25H85.54V20.1Zm-55,25.53V20.07c0-3.22.81-4.2,4.47-5.35H65.8c2.72.72,4.22,2.15,4.22,4.51q0,20.7,0,41.4c0,2.69-2.45,4.58-5.73,4.55q-16.38-.15-32.76,0c-3.24,0-6-1.8-6-4.82C25.68,55.45,25.6,50.54,25.6,45.63Z"/><path class="cls-2" d="M28.12,75a2.49,2.49,0,1,0,0,5,9.86,9.86,0,0,0,1.09,0H75.46V75H28.9A7.6,7.6,0,0,0,28.12,75Z"/></svg>