<?xml version="1.0" encoding="utf-8"?>
<!-- Generator: Adobe Illustrator 21.1.0, SVG Export Plug-In . SVG Version: 6.00 Build 0)  -->
<svg version="1.1" id="Layer_1" xmlns="http://www.w3.org/2000/svg" xmlns:xlink="http://www.w3.org/1999/xlink" x="0px" y="0px"
	 viewBox="0 0 100 100" style="enable-background:new 0 0 100 100;" xml:space="preserve">
<style type="text/css">
	.st0{fill:#FAB700;}
</style>
<title>productsy</title>
<path class="st0" d="M60.6,67.3c-0.5-0.3-0.8-0.8-0.9-1.3c0,0,0-0.1,0-0.1h-44c-1.3,0-2.4-1.1-2.4-2.4V31.3c0-1.3,1.1-2.4,2.4-2.4h0
	h61c1.3,0,2.4,1.1,2.4,2.4v0v22.4c1.2,0.1,2.3,0.2,3.3,0.4V31.3c0-3.1-2.5-5.7-5.7-5.7H15.7c-3.1,0-5.7,2.5-5.7,5.7v32.2
	c0,3.1,2.5,5.7,5.7,5.7h44.1c-0.1-0.1-0.1-0.3-0.1-0.5C59.8,68.2,60.1,67.7,60.6,67.3z"/>
<path class="st0" d="M72.2,50.2c-1.9,0-3.6,0.7-5,2c0.4,0.3,0.7,0.7,0.9,1.1c2.4-2.2,6.1-2.1,8.3,0.3c0,0,0,0,0.1,0.1
	c0.6,0,1.2,0,1.8,0.1C77.1,51.6,74.8,50.3,72.2,50.2z"/>
<path class="st0" d="M59.7,57.8c0-1.7,3.7-3.2,9-3.9c-0.1-0.2-0.3-0.5-0.4-0.7c-2.4-3.3-7-4-10.2-1.6c-3.3,2.4-4,7-1.6,10.2
	c1,1.4,2.5,2.4,4.1,2.8l0.1-0.1c-0.8-0.4-1.1-1.3-0.7-2c0.1-0.3,0.4-0.6,0.7-0.7c-0.8-0.4-1.1-1.3-0.7-2c0.1-0.3,0.4-0.6,0.7-0.7
	C60.1,58.9,59.8,58.4,59.7,57.8z"/>
<path class="st0" d="M87.9,68.7c-1.1,0.7-2.4,1.2-3.7,1.4c-3.1,0.7-6.2,1-9.3,1c-3.1,0-6.3-0.3-9.3-1c-1.3-0.2-2.6-0.7-3.7-1.4
	c0.2-0.1,0.3-0.2,0.5-0.3c-0.6-0.2-1.2-0.6-1.8-1c-0.5,0.3-0.8,0.8-0.9,1.4c0,0.2,0,0.3,0.1,0.5c0.8,2.1,7.2,3.8,15,3.8
	c8.4,0,15.2-2,15.2-4.3c-0.1-0.6-0.4-1.1-0.9-1.4c-0.5,0.4-1.1,0.8-1.8,1C87.5,68.5,87.7,68.6,87.9,68.7z"/>
<path class="st0" d="M87.9,66c-1.1,0.7-2.4,1.2-3.7,1.4c-3.1,0.7-6.2,1-9.3,1c-3.1,0-6.3-0.3-9.3-1c-1.3-0.2-2.6-0.7-3.7-1.4
	c0.2-0.1,0.3-0.2,0.5-0.3c-0.6-0.2-1.2-0.6-1.8-1l-0.1,0.1c-0.4,0.3-0.7,0.7-0.8,1.2c0,0,0,0.1,0,0.1c0.1,0.6,0.4,1.1,0.9,1.4
	c0.5,0.4,1.1,0.8,1.8,1c2.7,1.1,7.3,1.9,12.5,1.9s9.8-0.7,12.5-1.9c0.6-0.2,1.2-0.6,1.8-1c0.8-0.4,1.1-1.3,0.7-2
	c-0.1-0.3-0.4-0.6-0.7-0.7c-0.5,0.4-1.1,0.8-1.8,1C87.6,65.8,87.7,65.9,87.9,66z"/>
<path class="st0" d="M87.9,63.3c-1.1,0.7-2.4,1.2-3.7,1.4c-3.1,0.7-6.2,1-9.3,1c-3.1,0-6.3-0.3-9.3-1c-1.3-0.2-2.6-0.7-3.7-1.4
	c0.2-0.1,0.3-0.2,0.5-0.3c-0.6-0.2-1.2-0.6-1.8-1c-0.8,0.4-1.1,1.3-0.7,2c0.1,0.3,0.4,0.6,0.7,0.7c0.5,0.4,1.1,0.8,1.8,1
	c2.7,1.1,7.3,1.9,12.5,1.9s9.8-0.7,12.5-1.9c0.6-0.2,1.2-0.6,1.8-1c0.8-0.4,1.1-1.3,0.7-2c-0.1-0.3-0.4-0.6-0.7-0.7
	c-0.5,0.4-1.1,0.8-1.8,1C87.5,63,87.7,63.2,87.9,63.3z"/>
<path class="st0" d="M90,60.5c-0.1-0.6-0.4-1.1-0.9-1.4c-0.5,0.4-1.1,0.8-1.8,1c0.2,0.1,0.4,0.2,0.5,0.3c-1.1,0.7-2.4,1.2-3.7,1.5
	c-3.1,0.7-6.2,1-9.3,1c-3.1,0-6.3-0.3-9.3-1c-1.3-0.2-2.6-0.7-3.7-1.4c0.2-0.1,0.3-0.2,0.5-0.3c-0.6-0.2-1.2-0.6-1.8-1
	c-0.8,0.4-1.1,1.3-0.7,2c0.1,0.3,0.4,0.6,0.7,0.7c0.5,0.4,1.1,0.8,1.8,1c2.7,1.1,7.3,1.9,12.5,1.9s9.8-0.7,12.5-1.9
	c0.6-0.2,1.2-0.6,1.8-1C89.6,61.7,89.9,61.1,90,60.5z"/>
<path class="st0" d="M78.5,53.7c-0.6,0-1.2-0.1-1.8-0.1s-1.2,0-1.8,0c-2.1,0-4.1,0.1-6.2,0.4c-5.3,0.7-9,2.2-9,3.9
	c0.1,0.6,0.4,1.1,0.9,1.4c0.5,0.4,1.1,0.8,1.8,1c2.7,1.1,7.3,1.9,12.5,1.9s9.8-0.7,12.5-1.9c0.6-0.2,1.2-0.6,1.8-1
	c0.5-0.3,0.8-0.8,0.9-1.4c0-1.6-3.1-3-7.6-3.7c-1-0.2-2.1-0.3-3.3-0.4L78.5,53.7z M84.2,56.4c1.3,0.2,2.6,0.7,3.7,1.4
	c-1.1,0.7-2.4,1.2-3.7,1.4c-3.1,0.7-6.2,1-9.3,1c-3.1,0-6.3-0.3-9.3-1c-1.3-0.2-2.6-0.7-3.7-1.4c1.1-0.7,2.4-1.2,3.7-1.4
	c3.1-0.7,6.2-1,9.3-1C78,55.4,81.1,55.7,84.2,56.4z"/>
<rect x="16.4" y="59" class="st0" width="36" height="2.8"/>
</svg>
