<?xml version="1.0" encoding="UTF-8"?>
<svg width="36px" height="30px" viewBox="0 0 36 30" version="1.1" xmlns="http://www.w3.org/2000/svg" xmlns:xlink="http://www.w3.org/1999/xlink">
    <!-- Generator: Sketch 41.2 (35397) - http://www.bohemiancoding.com/sketch -->
    <title>116</title>
    <desc>Created with Sketch.</desc>
    <defs></defs>
    <g id="Page-1" stroke="none" stroke-width="1" fill="none" fill-rule="evenodd">
        <path d="M34.4438889,0 L1.11111111,0 C0.497777778,0 0,0.5 0,1.11111111 L0,28.8888889 C0,29.5055556 0.497777778,30 1.11111111,30 L34.4438889,30 C35.0583333,30 35.555,29.5055556 35.555,28.8888889 L35.555,1.11111111 C35.555,0.5 35.0583333,0 34.4438889,0 L34.4438889,0 Z M2.22222222,27.7777778 L2.22222222,8.88888889 L33.3327778,8.88888889 L33.3327778,27.7777778 L2.22222222,27.7777778 L2.22222222,27.7777778 Z M29.9994444,11.1111111 L21.6661111,11.1111111 C21.0533333,11.1111111 20.555,11.6111111 20.555,12.2222222 L20.555,21.1111111 C20.555,21.7277778 21.0533333,22.2222222 21.6661111,22.2222222 L29.9994444,22.2222222 C30.6138889,22.2222222 31.1105556,21.7277778 31.1105556,21.1111111 L31.1105556,12.2222222 C31.1105556,11.6111111 30.6138889,11.1111111 29.9994444,11.1111111 L29.9994444,11.1111111 Z M17.2216667,20 L5.55555556,20 C4.94222222,20 4.44444444,20.5 4.44444444,21.1111111 C4.44444444,21.7277778 4.94222222,22.2222222 5.55555556,22.2222222 L17.2216667,22.2222222 C17.8361111,22.2222222 18.3327778,21.7277778 18.3327778,21.1111111 C18.3327778,20.5 17.8361111,20 17.2216667,20 L17.2216667,20 Z M28.8883333,20 L22.7772222,20 L22.7772222,13.3333333 L28.8883333,13.3333333 L28.8883333,20 L28.8883333,20 Z M17.2216667,15.5555556 L5.55555556,15.5555556 C4.94222222,15.5555556 4.44444444,16.0555556 4.44444444,16.6666667 C4.44444444,17.2833333 4.94222222,17.7777778 5.55555556,17.7777778 L17.2216667,17.7777778 C17.8361111,17.7777778 18.3327778,17.2833333 18.3327778,16.6666667 C18.3327778,16.0555556 17.8361111,15.5555556 17.2216667,15.5555556 L17.2216667,15.5555556 Z M17.2216667,11.1111111 L5.55555556,11.1111111 C4.94222222,11.1111111 4.44444444,11.6111111 4.44444444,12.2222222 C4.44444444,12.8388889 4.94222222,13.3333333 5.55555556,13.3333333 L17.2216667,13.3333333 C17.8361111,13.3333333 18.3327778,12.8388889 18.3327778,12.2222222 C18.3327778,11.6111111 17.8361111,11.1111111 17.2216667,11.1111111 L17.2216667,11.1111111 Z M33.3327778,2.22222222 L33.3327778,6.66666667 L2.22222222,6.66666667 L2.22222222,2.22222222 L33.3327778,2.22222222 L33.3327778,2.22222222 Z M12.2222222,5.55555556 C12.5172222,5.55555556 12.8005556,5.43888889 13.0055556,5.22777778 C13.2172222,5.02222222 13.3333333,4.73888889 13.3333333,4.44444444 C13.3333333,4.15555556 13.2172222,3.86666667 13.0055556,3.65555556 C12.5938889,3.24444444 11.85,3.24444444 11.4333333,3.66111111 C11.2277778,3.86666667 11.1111111,4.15555556 11.1111111,4.44444444 C11.1111111,4.73888889 11.2277778,5.02222222 11.4383333,5.22777778 C11.645,5.43888889 11.9333333,5.55555556 12.2222222,5.55555556 L12.2222222,5.55555556 Z M5.55555556,5.55555556 C5.84388889,5.55555556 6.13388889,5.43888889 6.33888889,5.22777778 C6.55055556,5.02222222 6.66666667,4.73333333 6.66666667,4.44444444 C6.66666667,4.15555556 6.55055556,3.86666667 6.33888889,3.65555556 C5.92777778,3.24444444 5.18333333,3.24444444 4.76666667,3.66111111 C4.56166667,3.86666667 4.44444444,4.15 4.44444444,4.44444444 C4.44444444,4.73888889 4.56166667,5.02222222 4.77222222,5.23333333 C4.97833333,5.43888889 5.26666667,5.55555556 5.55555556,5.55555556 L5.55555556,5.55555556 Z M8.88888889,5.55555556 C9.17722222,5.55555556 9.46722222,5.43888889 9.67777778,5.22777778 C9.88388889,5.02222222 10,4.73333333 10,4.44444444 C10,4.15555556 9.88388889,3.86666667 9.67222222,3.65555556 C9.26111111,3.24444444 8.51666667,3.24444444 8.1,3.66111111 C7.895,3.86666667 7.77777778,4.15555556 7.77777778,4.44444444 C7.77777778,4.73333333 7.895,5.02222222 8.105,5.23333333 C8.31166667,5.43888889 8.6,5.55555556 8.88888889,5.55555556 L8.88888889,5.55555556 Z" id="116" fill="#FAB700"></path>
    </g>
</svg>