<svg id="Layer_1" data-name="Layer 1" xmlns="http://www.w3.org/2000/svg" viewBox="0 0 100 100"><defs><style>.cls-1{fill:#006ac6;}</style></defs><title>toolkit</title><path class="cls-1" d="M75.3,26.54H65.11V22.43a3.62,3.62,0,0,0-3.5-3.72H37.56a3.62,3.62,0,0,0-3.5,3.72v1.31a1.64,1.64,0,0,0-.05.41v2.39H22c-5.34,0-14.29,1.95-14.29,15v16.8a2,2,0,0,0,1.77,2V73.22c0,4.89,3.72,8.87,8.29,8.87H81.71c4.57,0,8.29-4,8.29-8.87V60.32h0a2,2,0,0,0,2-2V41.52C92,37.63,88.93,26.54,75.3,26.54ZM88,56.32h0a2,2,0,0,0-2,2V73.22c0,2.69-1.92,4.87-4.29,4.87H17.79c-2.36,0-4.29-2.19-4.29-4.87V58.32a2,2,0,0,0-1.77-2V41.52c0-7.49,3.27-11,10.29-11h14l.19,0,.23,0a2.28,2.28,0,0,0,2.48-2V26.15H60v2.39a2.28,2.28,0,0,0,2.48,2l.32,0,.26,0H75.3c10.37,0,12.7,8.13,12.7,11Z"/><path class="cls-1" d="M81.9,59.09h-9c-.33,1.78-2.38,3.15-4.87,3.15s-4.54-1.37-4.87-3.15h-27c-.33,1.78-2.38,3.15-4.87,3.15s-4.54-1.37-4.87-3.15H17.84a1.55,1.55,0,0,1,0-3.06h8.53V53.49c0-2,2.21-3.66,4.93-3.66s4.93,1.64,4.93,3.66V56H63.12V53.49c0-2,2.2-3.66,4.93-3.66S73,51.47,73,53.49V56h8.93a1.55,1.55,0,0,1,0,3.06Z"/></svg>