<?xml version="1.0" encoding="UTF-8"?>
<svg width="34px" height="34px" viewBox="0 0 34 34" version="1.1" xmlns="http://www.w3.org/2000/svg" xmlns:xlink="http://www.w3.org/1999/xlink">
    <!-- Generator: Sketch 41.2 (35397) - http://www.bohemiancoding.com/sketch -->
    <title>77</title>
    <desc>Created with Sketch.</desc>
    <defs></defs>
    <g id="Page-1" stroke="none" stroke-width="1" fill="none" fill-rule="evenodd">
        <path d="M32.9374834,31.8754981 L31.8749668,31.8754981 L31.8749668,17.0002656 C31.8749668,15.8261848 30.9218894,14.8752324 29.7499336,14.8752324 L26.5623838,14.8752324 C25.390428,14.8752324 24.4373506,15.8261848 24.4373506,17.0002656 L24.4373506,31.8754981 L23.374834,31.8754981 L23.374834,6.37509961 C23.374834,5.20101877 22.4222878,4.25006641 21.2498008,4.25006641 L18.0627822,4.25006641 C16.8902952,4.25006641 15.937749,5.20101877 15.937749,6.37509961 L15.937749,31.8754981 L14.8752324,31.8754981 L14.8752324,22.3128486 C14.8752324,21.1387678 13.922155,20.1878154 12.7501992,20.1878154 L9.56264942,20.1878154 C8.3906936,20.1878154 7.43761621,21.1387678 7.43761621,22.3128486 L7.43761621,31.8754981 L2.1250332,31.8754981 L2.1250332,27.6254316 L4.25006641,27.6254316 C4.83657557,27.6254316 5.31258301,27.1526118 5.31258301,26.562915 C5.31258301,25.9785309 4.83657557,25.5003984 4.25006641,25.5003984 L2.1250332,25.5003984 L2.1250332,22.3128486 C2.71154237,22.3128486 3.18754981,21.8400288 3.18754981,21.250332 C3.18754981,20.6659479 2.71154237,20.1878154 2.1250332,20.1878154 L2.1250332,17.0002656 L4.25006641,17.0002656 C4.83657557,17.0002656 5.31258301,16.5274457 5.31258301,15.937749 C5.31258301,15.3533649 4.83657557,14.8752324 4.25006641,14.8752324 L2.1250332,14.8752324 L2.1250332,11.6876826 C2.71154237,11.6876826 3.18754981,11.2148627 3.18754981,10.625166 C3.18754981,10.0407819 2.71154237,9.56264942 2.1250332,9.56264942 L2.1250332,6.37509961 L4.25006641,6.37509961 C4.83657557,6.37509961 5.31258301,5.90227972 5.31258301,5.31258301 C5.31258301,4.72819888 4.83657557,4.25006641 4.25006641,4.25006641 L2.1250332,4.25006641 L2.1250332,1.0625166 C2.1250332,0.478132471 1.64902577,0 1.0625166,0 C0.476007438,0 0,0.478132471 0,1.0625166 L0,31.8754981 C0,33.0495789 0.953077392,34.0005313 2.1250332,34.0005313 L32.9374834,34.0005313 C33.5245238,34.0005313 34,33.5277114 34,32.9380147 C34,32.3536305 33.5245238,31.8754981 32.9374834,31.8754981 L32.9374834,31.8754981 Z M26.5623838,17.0002656 L29.7499336,17.0002656 L29.7499336,31.8754981 L26.5623838,31.8754981 L26.5623838,17.0002656 L26.5623838,17.0002656 Z M18.0627822,6.37509961 L21.2498008,6.37509961 L21.2498008,31.8754981 L18.0627822,31.8754981 L18.0627822,6.37509961 L18.0627822,6.37509961 Z M9.56264942,22.3128486 L12.7501992,22.3128486 L12.7501992,31.8754981 L9.56264942,31.8754981 L9.56264942,22.3128486 L9.56264942,22.3128486 Z" id="77" fill="#FAB700"></path>
    </g>
</svg>